<?xml version="1.0" encoding="UTF-8" standalone="no"?>
<!-- Generator: Adobe Illustrator 22.0.0, SVG Export Plug-In . SVG Version: 6.00 Build 0) -->

<svg
   version="1.1"
   id="Layer_1"
   x="0px"
   y="0px"
   viewBox="0 0 190 32"
   style="enable-background:new 0 0 190 32;"
   xml:space="preserve"
   sodipodi:docname="spiro_negro.svg"
   inkscape:version="1.2.1 (9c6d41e410, 2022-07-14)"
   xmlns:inkscape="http://www.inkscape.org/namespaces/inkscape"
   xmlns:sodipodi="http://sodipodi.sourceforge.net/DTD/sodipodi-0.dtd"
   xmlns="http://www.w3.org/2000/svg"
   xmlns:svg="http://www.w3.org/2000/svg"><defs
   id="defs4698" /><sodipodi:namedview
   id="namedview4696"
   pagecolor="#ffffff"
   bordercolor="#000000"
   borderopacity="0.25"
   inkscape:showpageshadow="2"
   inkscape:pageopacity="0.0"
   inkscape:pagecheckerboard="0"
   inkscape:deskcolor="#d1d1d1"
   showgrid="false"
   inkscape:zoom="6.8947368"
   inkscape:cx="95.652672"
   inkscape:cy="16.026718"
   inkscape:window-width="1920"
   inkscape:window-height="991"
   inkscape:window-x="-9"
   inkscape:window-y="-9"
   inkscape:window-maximized="1"
   inkscape:current-layer="Layer_1" /> <style
   type="text/css"
   id="style4647"> .st0{fill:#FFFFFF;} </style> <polyline
   class="st0"
   points="21.5,3.1 3,8.6 3,14 21.5,8.6 "
   id="polyline4649"
   style="fill:#000000" /> <polygon
   class="st0"
   points="2.9,14.1 2.9,8.5 21.5,3.1 21.5,3.2 3,8.6 3,13.9 21.5,8.5 21.5,8.6 "
   id="polygon4651"
   style="fill:#000000" /> <polyline
   class="st0"
   points="21.5,10.6 3,16 3,21.4 21.5,16 "
   id="polyline4653"
   style="fill:#000000" /> <polygon
   class="st0"
   points="2.9,21.5 2.9,16 21.5,10.5 21.6,10.6 3,16 3,21.4 21.5,15.9 21.6,16.1 "
   id="polygon4655"
   style="fill:#000000" /> <polyline
   class="st0"
   points="21.5,18 3,23.4 3,28.9 21.5,23.4 "
   id="polyline4657"
   style="fill:#000000" /> <polygon
   class="st0"
   points="2.9,29 2.9,23.4 21.5,17.9 21.5,18.1 3,23.5 3,28.8 21.5,23.4 21.5,23.5 "
   id="polygon4659"
   style="fill:#000000" /> <path
   class="st0"
   d="M24.5,31.8H0V0.2h24.5V31.8z M0.6,31.3h23.3V0.7H0.6V31.3z"
   id="path4661"
   style="fill:#000000" /> <line
   class="st0"
   x1="3"
   y1="8.7"
   x2="21.5"
   y2="10.7"
   id="line4663"
   style="fill:#000000" /> <rect
   x="12.1"
   y="0.4"
   transform="matrix(0.107 -0.9943 0.9943 0.107 1.2673 20.868)"
   class="st0"
   width="0.3"
   height="18.6"
   id="rect4665"
   style="fill:#000000" /> <line
   class="st0"
   x1="3"
   y1="13.8"
   x2="21.5"
   y2="15.8"
   id="line4667"
   style="fill:#000000" /> <rect
   x="12.1"
   y="5.5"
   transform="matrix(0.1063 -0.9943 0.9943 0.1063 -3.7962 25.4449)"
   class="st0"
   width="0.3"
   height="18.7"
   id="rect4669"
   style="fill:#000000" /> <line
   class="st0"
   x1="3"
   y1="16.2"
   x2="21.5"
   y2="18.2"
   id="line4671"
   style="fill:#000000" /> <rect
   x="12.1"
   y="7.9"
   transform="matrix(0.1074 -0.9942 0.9942 0.1074 -6.1365 27.5107)"
   class="st0"
   width="0.3"
   height="18.6"
   id="rect4673"
   style="fill:#000000" /> <line
   class="st0"
   x1="3"
   y1="21.3"
   x2="21.5"
   y2="23.2"
   id="line4675"
   style="fill:#000000" /> <rect
   x="12.1"
   y="13"
   transform="matrix(0.1059 -0.9944 0.9944 0.1059 -11.1787 32.0813)"
   class="st0"
   width="0.3"
   height="18.6"
   id="rect4677"
   style="fill:#000000" /> <path
   class="st0"
   d="M165,9.6c-1.8,0-3.3,0.6-4.5,1.8c-1.2,1.2-1.8,2.7-1.8,4.5c0,1.9,0.6,3.4,1.9,4.6c1.2,1.2,2.7,1.8,4.3,1.8 c1.8,0,3.3-0.6,4.5-1.8c1.2-1.2,1.8-2.8,1.8-4.5c0-1.8-0.6-3.3-1.8-4.5C168.2,10.3,166.7,9.6,165,9.6"
   id="path4679"
   style="fill:#000000" /> <path
   class="st0"
   d="M100.3,10h-1v12.1h1c1.2,0,2.1-0.1,2.9-0.4c0.8-0.3,1.4-0.7,2.1-1.2c1.3-1.1,1.9-2.7,1.9-4.5 c0-1.9-0.6-3.4-1.9-4.5C104.1,10.5,102.5,10,100.3,10"
   id="path4681"
   style="fill:#000000" /> <path
   class="st0"
   d="M93.8,31.5H190V0.5H93.8V31.5z M107.2,22.6c-0.9,0.8-1.9,1.4-3,1.7c-1,0.3-2.4,0.5-4.1,0.5h-3.7V7.2h3.8 c1.7,0,3.1,0.2,4.2,0.5c1.1,0.3,2.1,0.9,3,1.7c1.8,1.6,2.7,3.8,2.7,6.5C110,18.7,109.1,20.9,107.2,22.6 M126.1,18.5 c0,1.9-0.6,3.4-1.7,4.6c-1.3,1.3-2.9,2-4.8,2c-1.9,0-3.5-0.7-4.8-2c-1.2-1.2-1.7-2.8-1.7-4.6V7.2h2.9v10.6c0,1.5,0.2,2.5,0.7,3.2 c0.7,1,1.7,1.4,3,1.4c1.3,0,2.3-0.5,3-1.4c0.5-0.6,0.7-1.7,0.7-3.2V7.2h2.9V18.5z M143.1,11.7l-0.2-0.2c-1.5-1.2-3-1.9-4.6-1.9 c-1.7,0-3.2,0.6-4.4,1.9c-1.2,1.2-1.8,2.8-1.8,4.6c0,1.8,0.6,3.3,1.8,4.5c1.2,1.2,2.7,1.8,4.4,1.8c0.9,0,1.6-0.1,2.3-0.4 c0.4-0.1,0.7-0.3,1.1-0.6c0.4-0.2,0.8-0.6,1.2-0.9l0.2-0.2v3.5l-0.1,0c-1.5,0.9-3.1,1.3-4.8,1.3c-2.5,0-4.7-0.9-6.4-2.6 c-1.8-1.8-2.7-3.9-2.7-6.4c0-2.2,0.7-4.2,2.2-6c1.8-2.1,4.2-3.2,7.1-3.2c1.6,0,3.1,0.4,4.6,1.3l0.1,0V11.7z M155.1,10h-4v14.9h-2.9 V10h-4V7.2h10.8V10z M171.4,22.5c-1.8,1.8-4,2.7-6.6,2.7c-2.3,0-4.3-0.8-6.1-2.4c-2-1.7-3-4-3-6.8c0-2.5,0.9-4.6,2.7-6.4 c1.8-1.8,4-2.7,6.5-2.7c2.5,0,4.7,0.9,6.4,2.7c1.8,1.8,2.7,4,2.7,6.5C174.2,18.6,173.2,20.7,171.4,22.5 M186,23.5 c-1.1,1.1-2.5,1.6-4.1,1.6c-1.5,0-2.8-0.5-3.8-1.4c-1-0.9-1.6-2.2-1.8-3.8l0-0.1l2.9-0.6l0,0.1c0.1,1,0.3,1.7,0.6,2 c0.5,0.7,1.3,1.1,2.2,1.1c0.8,0,1.4-0.3,1.9-0.8c0.5-0.5,0.8-1.2,0.8-2c0-0.3,0-0.6-0.1-0.9c-0.1-0.3-0.2-0.5-0.4-0.7 c-0.2-0.2-0.4-0.4-0.7-0.6c-0.3-0.2-0.7-0.4-1.1-0.6l-1.7-0.7c-2.4-1-3.6-2.5-3.6-4.5c0-1.3,0.5-2.5,1.5-3.4c1-0.9,2.3-1.4,3.8-1.4 c2,0,3.7,1,4.8,3l0.1,0.1l-2.4,1.4l-0.1-0.1c-0.4-0.7-0.7-1.1-1.1-1.3c-0.4-0.2-0.8-0.3-1.4-0.3c-0.7,0-1.3,0.2-1.7,0.6 c-0.5,0.4-0.7,0.8-0.7,1.4c0,0.8,0.6,1.4,1.8,1.9l1.7,0.7c1.4,0.6,2.5,1.3,3.1,2.1c0.7,0.8,1,1.9,1,3.1 C187.7,21.1,187.1,22.5,186,23.5"
   id="path4683"
   style="fill:#000000" /> <path
   class="st0"
   d="M34.8,14.3l-1.7-0.7c-1.2-0.5-1.8-1.1-1.8-1.9c0-0.6,0.2-1,0.7-1.4c0.5-0.4,1-0.6,1.7-0.6c0.6,0,1,0.1,1.4,0.3 c0.3,0.2,0.7,0.6,1.1,1.3l0.1,0.1l2.4-1.4l-0.1-0.1c-1.1-2-2.8-3-4.8-3c-1.5,0-2.8,0.5-3.8,1.4c-1,0.9-1.5,2-1.5,3.4 c0,2,1.2,3.5,3.6,4.5l1.7,0.7c0.4,0.2,0.8,0.4,1.1,0.6c0.3,0.2,0.5,0.4,0.7,0.6c0.2,0.2,0.3,0.5,0.4,0.7C36,19,36,19.3,36,19.7 c0,0.8-0.3,1.5-0.8,2c-0.5,0.5-1.2,0.8-1.9,0.8c-1,0-1.7-0.3-2.2-1.1c-0.3-0.4-0.5-1.1-0.6-2l0-0.2l-2.9,0.6l0,0.1 c0.2,1.6,0.9,2.9,1.8,3.8c1,0.9,2.3,1.4,3.8,1.4c1.6,0,3-0.5,4.1-1.6c1.1-1.1,1.6-2.4,1.6-4c0-1.2-0.3-2.3-1-3.1 C37.3,15.5,36.2,14.8,34.8,14.3"
   id="path4685"
   style="fill:#000000" /> <path
   class="st0"
   d="M48.3,7.5c-0.7-0.2-1.9-0.3-3.3-0.3h-3.1v17.6h2.9v-7h1.1c1.8,0,3.3-0.5,4.4-1.4c1.1-1,1.6-2.3,1.6-3.9 c0-1.5-0.5-2.8-1.5-3.8C49.7,8.1,49,7.7,48.3,7.5 M49,12.5c0,1.8-1.1,2.6-3.5,2.6h-0.8V9.9h0.7C47.9,9.9,49,10.8,49,12.5"
   id="path4687"
   style="fill:#000000" /> <rect
   x="54.2"
   y="7.2"
   class="st0"
   width="2.9"
   height="17.6"
   id="rect4689"
   style="fill:#000000" /> <path
   class="st0"
   d="M69.9,15.7c0.7-0.9,1.1-2,1.1-3.2c0-1.6-0.6-2.9-1.7-3.9c-1-0.9-2.7-1.3-5-1.3H61v17.6h2.9v-7.1h0.3l4.9,7.1 h3.5l-5.4-7.4C68.3,17.1,69.2,16.6,69.9,15.7 M68.2,12.5c0,0.9-0.3,1.6-0.9,2c-0.6,0.5-1.5,0.7-2.7,0.7h-0.7V10h0.8 C67,10,68.2,10.8,68.2,12.5"
   id="path4691"
   style="fill:#000000" /> <path
   class="st0"
   d="M89.3,9.6c-1.8-1.8-4-2.7-6.4-2.7c-2.5,0-4.7,0.9-6.5,2.7c-1.8,1.8-2.7,3.9-2.7,6.4c0,2.8,1,5.1,3,6.8 c1.8,1.6,3.9,2.4,6.1,2.4c2.6,0,4.8-0.9,6.6-2.7c1.8-1.8,2.7-3.9,2.7-6.4C92,13.6,91.1,11.4,89.3,9.6 M82.7,22.4 c-1.6,0-3.1-0.6-4.3-1.8c-1.3-1.2-1.9-2.8-1.9-4.6c0-1.8,0.6-3.3,1.8-4.5c1.2-1.2,2.7-1.8,4.5-1.8c1.8,0,3.3,0.6,4.5,1.8 c1.2,1.2,1.8,2.7,1.8,4.5c0,1.8-0.6,3.3-1.8,4.5C86,21.8,84.5,22.4,82.7,22.4"
   id="path4693"
   style="fill:#000000" /> </svg>
