<?xml version="1.0" encoding="UTF-8" standalone="no"?>
<!-- Generator: Adobe Illustrator 22.0.0, SVG Export Plug-In . SVG Version: 6.00 Build 0) -->

<svg
   version="1.1"
   id="Layer_1"
   x="0px"
   y="0px"
   viewBox="0 0 245 318"
   xml:space="preserve"
   sodipodi:docname="spiro_blanco.svg"
   width="245"
   height="318"
   inkscape:version="1.2.1 (9c6d41e410, 2022-07-14)"
   xmlns:inkscape="http://www.inkscape.org/namespaces/inkscape"
   xmlns:sodipodi="http://sodipodi.sourceforge.net/DTD/sodipodi-0.dtd"
   xmlns="http://www.w3.org/2000/svg"
   xmlns:svg="http://www.w3.org/2000/svg"><defs
   id="defs53" /><sodipodi:namedview
   id="namedview51"
   pagecolor="#000000"
   bordercolor="#000000"
   borderopacity="0.25"
   inkscape:showpageshadow="2"
   inkscape:pageopacity="0"
   inkscape:pagecheckerboard="0"
   inkscape:deskcolor="#d1d1d1"
   showgrid="false"
   inkscape:zoom="1"
   inkscape:cx="57.5"
   inkscape:cy="282.5"
   inkscape:window-width="1920"
   inkscape:window-height="991"
   inkscape:window-x="-9"
   inkscape:window-y="-9"
   inkscape:window-maximized="1"
   inkscape:current-layer="Layer_1" /> <style
   type="text/css"
   id="style2"> .st0{fill:#FFFFFF;} </style> <rect
   style="opacity:1;fill:#ffffff;stroke-width:100"
   id="rect4605"
   width="245"
   height="318"
   x="0"
   y="0.10000038" /><polyline
   class="st0"
   points="21.5,3.1 3,8.6 3,14 21.5,8.6 "
   id="polyline4"
   style="fill:#000000"
   transform="matrix(10,0,0,10,0,-0.90000343)" /> <polygon
   class="st0"
   points="21.5,3.1 21.5,3.2 3,8.6 3,13.9 21.5,8.5 21.5,8.6 2.9,14.1 2.9,8.5 "
   id="polygon6"
   style="fill:#000000"
   transform="matrix(10,0,0,10,0,-0.90000343)" /> <polyline
   class="st0"
   points="21.5,10.6 3,16 3,21.4 21.5,16 "
   id="polyline8"
   style="fill:#000000"
   transform="matrix(10,0,0,10,0,-0.90000343)" /> <polygon
   class="st0"
   points="21.5,10.5 21.6,10.6 3,16 3,21.4 21.5,15.9 21.6,16.1 2.9,21.5 2.9,16 "
   id="polygon10"
   style="fill:#000000"
   transform="matrix(10,0,0,10,0,-0.90000343)" /> <polyline
   class="st0"
   points="21.5,18 3,23.4 3,28.9 21.5,23.4 "
   id="polyline12"
   style="fill:#000000"
   transform="matrix(10,0,0,10,0,-0.90000343)" /> <polygon
   class="st0"
   points="21.5,17.9 21.5,18.1 3,23.5 3,28.8 21.5,23.4 21.5,23.5 2.9,29 2.9,23.4 "
   id="polygon14"
   style="fill:#000000"
   transform="matrix(10,0,0,10,0,-0.90000343)" /> <path
   class="st0"
   d="M 245,317.1 H 0 V 1.0999966 H 245 Z M 6,312.1 H 239 V 6.0999966 H 6 Z"
   id="path16"
   style="fill:#000000;stroke-width:10" /> <line
   class="st0"
   x1="30"
   y1="86.099991"
   x2="215"
   y2="106.09999"
   id="line18"
   style="fill:#000000;stroke-width:10" /> <rect
   x="-84.226349"
   y="38.831966"
   transform="rotate(-83.857844)"
   class="st0"
   width="3.0001223"
   height="186.00757"
   id="rect20"
   style="fill:#000000;stroke-width:10.0004" /> <line
   class="st0"
   x1="30"
   y1="137.10001"
   x2="215"
   y2="157.10001"
   id="line22"
   style="fill:#000000;stroke-width:10" /> <rect
   x="-135.15192"
   y="44.204411"
   transform="rotate(-83.897722)"
   class="st0"
   width="2.9998984"
   height="186.99368"
   id="rect24"
   style="fill:#000000;stroke-width:9.99966" /> <line
   class="st0"
   x1="30"
   y1="161.10001"
   x2="215"
   y2="181.10001"
   id="line26"
   style="fill:#000000;stroke-width:10" /> <rect
   x="-158.21352"
   y="47.438999"
   transform="rotate(-83.834444)"
   class="st0"
   width="2.9999528"
   height="185.99707"
   id="rect28"
   style="fill:#000000;stroke-width:9.99984" /> <line
   class="st0"
   x1="30"
   y1="212.09999"
   x2="215"
   y2="231.10001"
   id="line30"
   style="fill:#000000;stroke-width:10" /> <rect
   x="-208.94933"
   y="52.72258"
   transform="rotate(-83.921119)"
   class="st0"
   width="3.0000691"
   height="186.0043"
   id="rect32"
   style="fill:#000000;stroke-width:10.0002" />         </svg>
